<svg width="14" height="13" viewBox="0 0 14 13" fill="none" xmlns="http://www.w3.org/2000/svg">
<path d="M1.61979 12.2565C1.29896 12.2565 1.02431 12.1423 0.795833 11.9138C0.567361 11.6853 0.453125 11.4107 0.453125 11.0898V4.08984C0.453125 3.76901 0.567361 3.49436 0.795833 3.26589C1.02431 3.03741 1.29896 2.92318 1.61979 2.92318H3.45729L4.53646 1.75651H8.03646V2.92318H5.04688L3.98229 4.08984H1.61979V11.0898H10.9531V5.83984H12.1198V11.0898C12.1198 11.4107 12.0056 11.6853 11.7771 11.9138C11.5486 12.1423 11.274 12.2565 10.9531 12.2565H1.61979ZM10.9531 4.08984V2.92318H9.78646V1.75651H10.9531V0.589844H12.1198V1.75651H13.2865V2.92318H12.1198V4.08984H10.9531ZM6.28646 10.2148C7.01562 10.2148 7.63542 9.95963 8.14583 9.44922C8.65625 8.9388 8.91146 8.31901 8.91146 7.58984C8.91146 6.86068 8.65625 6.24089 8.14583 5.73047C7.63542 5.22005 7.01562 4.96484 6.28646 4.96484C5.55729 4.96484 4.9375 5.22005 4.42708 5.73047C3.91667 6.24089 3.66146 6.86068 3.66146 7.58984C3.66146 8.31901 3.91667 8.9388 4.42708 9.44922C4.9375 9.95963 5.55729 10.2148 6.28646 10.2148ZM6.28646 9.04818C5.87813 9.04818 5.53299 8.9072 5.25104 8.62526C4.9691 8.34332 4.82812 7.99818 4.82812 7.58984C4.82812 7.18151 4.9691 6.83637 5.25104 6.55443C5.53299 6.27248 5.87813 6.13151 6.28646 6.13151C6.69479 6.13151 7.03993 6.27248 7.32188 6.55443C7.60382 6.83637 7.74479 7.18151 7.74479 7.58984C7.74479 7.99818 7.60382 8.34332 7.32188 8.62526C7.03993 8.9072 6.69479 9.04818 6.28646 9.04818Z" fill="white"/>
</svg>
